<svg width="990" height="990" viewBox="0 0 990 990" fill="none" xmlns="http://www.w3.org/2000/svg">
<rect x="0.707107" y="494.975" width="699" height="699" transform="rotate(-45 0.707107 494.975)" fill="#1C4293" stroke="black"/>
<path d="M586.459 593.837C586.459 591.083 586.267 587.78 585.884 583.925C585.692 579.796 585.597 576.767 585.597 574.84C585.597 573.188 585.692 571.949 585.884 571.123C586.267 570.297 586.746 569.884 587.321 569.884C588.279 569.884 589.237 570.848 590.195 572.775C591.152 574.702 591.631 576.767 591.631 578.97C591.631 580.071 591.631 581.172 591.631 582.273C591.823 583.375 591.919 584.476 591.919 585.577C591.919 586.403 591.919 587.367 591.919 588.468C591.919 589.569 591.919 590.533 591.919 591.359C591.919 611.732 589.332 626.599 584.16 635.959C579.179 645.32 573.527 650 567.205 650C546.131 650 518.482 532.101 481.675 447.03C476.964 466.852 472.179 485.023 467.321 501.541C462.462 517.785 456.11 532.927 447.88 546.968C439.861 561.008 430.24 587.397 422.241 589.231C414.429 591.064 406.709 591.981 399.083 591.981C384.574 591.981 379.863 587.031 375.552 585.716C373.184 585 372 584.082 372 582.961C372 582.714 372.091 582.499 372.273 582.317C372.516 582.121 372.82 582.024 373.184 582.024C373.67 582.024 373.973 582.206 374.095 582.571C374.095 582.753 374.277 583.007 374.641 583.333C375.005 583.658 375.613 584.036 376.463 584.466C377.313 584.883 378.345 585.273 379.559 585.638C380.774 586.016 382.352 586.328 384.295 586.576C386.299 586.836 396.944 588.472 403.826 588.472C405.128 588.472 406.337 588.441 407.453 588.377C429.031 587.682 456.794 525.356 475.492 432.576L471.738 423.903C471.296 422.802 471.075 420.875 471.075 418.122C471.075 415.093 471.296 412.203 471.738 409.45C472.327 406.697 472.989 405.32 473.725 405.32C474.314 405.32 474.829 405.871 475.271 406.972L479.025 415.231C483.148 393.757 487.712 367.602 492.717 336.767C497.87 305.657 500.667 289.001 501.109 286.798C502.287 281.017 504.495 278.126 509.73 278.126C513.179 278.126 514.903 280.329 514.903 284.734C514.903 285.284 514.807 285.835 514.616 286.385C514.616 286.661 514.616 287.074 514.616 287.624C505.158 331.399 497.281 375.449 487.859 419.774C497.576 418.673 508.102 416.883 518.639 414.405C529.367 411.652 538.659 408.486 546.514 404.907C554.369 401.053 561.17 396.923 566.917 392.518C572.856 387.838 577.646 382.882 581.286 377.651C584.926 372.42 587.608 367.189 589.332 361.958C591.057 356.452 591.919 350.808 591.919 345.027C591.919 324.654 582.531 306.346 563.756 290.102C545.173 273.859 517.525 265.737 496.913 265.737C483.81 265.737 471.37 268.628 459.592 274.409C447.961 279.916 429.31 287.9 418.759 298.362C408.419 308.548 403.249 319.836 403.249 332.225C403.249 347.092 411.057 362.234 426.673 377.651C430.471 381.506 432.37 383.983 432.37 385.085C432.37 385.911 431.843 386.323 430.787 386.323C429.31 386.323 427.095 385.635 424.14 384.259C421.397 382.882 419.392 381.506 418.126 380.129C398.29 361.132 388.373 342.824 388.373 325.204C388.373 314.743 391.854 305.107 398.818 296.297C405.993 287.211 415.489 279.778 427.306 273.996C439.123 267.94 454.733 263.259 465.333 259.956C475.934 256.652 486.975 255 498.459 255C512.004 255 531.092 257.34 545.077 262.02C559.254 266.425 570.653 272.482 579.274 280.191C588.087 287.9 594.697 296.572 599.103 306.208C603.701 315.568 606 325.617 606 336.354C606 347.918 603.318 359.205 597.954 370.218C592.589 381.23 584.83 391.279 574.676 400.364C564.714 409.174 551.687 416.332 535.594 421.839C519.501 427.07 501.551 429.685 486.534 429.685C486.239 429.685 485.945 429.685 485.65 429.685V430.098C522.898 514.894 551.974 634.032 572.665 636.785H573.527C578.125 636.785 581.382 632.518 583.298 623.983C585.405 615.448 586.459 605.4 586.459 593.837Z" fill="#E8EAEF"/>
<path d="M566.384 422.63C567.032 422.63 568.915 423.028 572.033 423.823C575.152 424.221 578.83 424.619 583.067 425.017C587.363 425.017 620.417 425.017 633.616 425.017C642.602 425.017 649.483 425.017 654.257 425.017C664.086 425.017 669 426.807 669 430.388C669 434.367 664.086 437.55 654.257 439.937C644.428 442.324 636.003 443.518 628.982 443.518C609.324 546.169 597.423 597.661 589.279 622.329C568.498 684.795 542.361 728.81 521.881 750.886C501.4 772.962 481.038 784 460.796 784C439.6 784 423.049 773.786 411.142 753.357C406.617 745.779 404.354 738.53 404.354 731.61C404.593 728.315 405.307 726.503 406.498 726.174C408.403 726.174 410.665 728.645 413.285 733.587C417.334 741.166 420.787 747.097 423.644 751.38C426.74 755.663 431.146 759.947 436.862 764.23C442.815 768.514 449.007 770.655 455.437 770.655C472.346 770.655 488.54 762.583 504.02 746.438C519.499 730.292 534.658 706.28 547.576 676.042C560.494 645.804 571.306 615.168 580.012 584.134C588.718 553.498 595.317 524.055 599.81 495.806C588.016 528.034 565.69 555.089 532.833 576.972C499.976 598.855 466.839 609.796 433.42 609.796C398.036 609.796 369.953 595.473 349.172 566.826C328.391 537.782 318 501.973 318 459.401C318 434.335 321.089 410.065 327.267 386.591C333.446 363.116 341.87 342.029 352.542 323.329C363.494 304.232 376.272 286.924 390.875 271.407C405.478 255.492 421.064 242.363 437.632 232.018C454.482 221.275 471.893 212.92 489.866 206.952C508.12 200.984 526.093 198 543.785 198C547.717 198 551.648 198.199 555.58 198.597C575.8 200.188 592.228 204.565 604.865 211.727C617.783 218.888 625.927 226.249 629.297 233.808C630.982 237.787 631 241.368 631 244.551C631 246.142 630.734 247.933 630.203 249.922C629.672 251.514 628.212 254.1 628.212 254.1C628.212 254.1 628.125 254.232 628.068 254.315C624.191 259.973 614.993 255.452 614 254.1C613.007 252.748 608.075 245.614 605.708 240.97C597.002 223.862 578.889 213.517 551.368 209.936C547.998 209.538 544.347 209.339 540.415 209.339C533.395 209.339 525.812 209.936 517.668 211.13C509.805 212.323 500.959 214.711 491.13 218.291C481.582 221.474 471.893 225.652 462.064 230.824C452.516 235.599 442.687 242.164 432.578 250.519C422.468 258.476 413.06 267.627 404.354 277.972C395.649 287.919 387.224 300.253 379.08 314.974C370.936 329.297 364.056 344.814 358.439 361.525C347.206 394.946 341.59 427.174 341.59 458.208C341.59 497.199 351.699 529.029 371.919 553.697C392.138 577.967 415.166 590.102 441.002 590.102C482.846 590.102 516.966 577.569 543.364 552.503C570.043 527.039 590.368 499.817 608.341 446.502C584.471 448.491 575.358 449.486 564.354 449.486C563.354 449.486 562.53 447.497 561.883 443.518C561.294 439.141 561 434.367 561 429.195C561 424.022 561.588 422.598 562.765 422.559C564.001 422.52 565.06 422.5 565.943 422.5C566.002 422.5 566.061 422.5 566.12 422.5C566.473 422.5 566.679 422.508 566.737 422.524C566.737 422.528 566.708 422.531 566.649 422.535C566.355 422.559 566.149 422.579 566.031 422.594C565.972 422.61 566.09 422.622 566.384 422.63Z" fill="#E8EAEF"/>
</svg>
