<svg width="40" height="28" viewBox="0 0 40 28" fill="none" xmlns="http://www.w3.org/2000/svg">
<g clip-path="url(#clip0_40_106)">
<rect width="40" height="28" fill="#1C4293"/>
<path d="M16.6506 10.1392C16.4848 9.60227 16.2562 9.12169 15.9645 8.69744C15.6795 8.26657 15.3348 7.89867 14.9304 7.59375C14.5327 7.28883 14.0753 7.06013 13.5582 6.90767C13.0412 6.74858 12.4777 6.66903 11.8679 6.66903C10.7741 6.66903 9.79972 6.94413 8.9446 7.49432C8.08949 8.04451 7.41667 8.85322 6.92614 9.92045C6.44224 10.9811 6.20028 12.2737 6.20028 13.7983C6.20028 15.3362 6.44224 16.6387 6.92614 17.706C7.41004 18.7732 8.08286 19.5852 8.9446 20.142C9.80635 20.6922 10.8073 20.9673 11.9474 20.9673C12.9815 20.9673 13.8764 20.7685 14.6321 20.3707C15.3944 19.973 15.9811 19.4096 16.392 18.6804C16.803 17.9446 17.0085 17.0829 17.0085 16.0952L17.8438 16.2244H12.3153V13.3409H20.5781V15.7869C20.5781 17.5303 20.2069 19.0384 19.4645 20.3111C18.7221 21.5838 17.7012 22.5649 16.402 23.2543C15.1027 23.937 13.6113 24.2784 11.9276 24.2784C10.0516 24.2784 8.40436 23.8575 6.9858 23.0156C5.57386 22.1671 4.47017 20.964 3.67472 19.4062C2.88589 17.8419 2.49148 15.9858 2.49148 13.8381C2.49148 12.1941 2.72348 10.7259 3.1875 9.43324C3.65814 8.14062 4.31439 7.04356 5.15625 6.14204C5.99811 5.2339 6.9858 4.54451 8.11932 4.07386C9.25284 3.59659 10.4858 3.35795 11.8182 3.35795C12.9451 3.35795 13.9957 3.52367 14.9702 3.85511C15.9446 4.17992 16.8097 4.64394 17.5653 5.24716C18.3277 5.85038 18.9541 6.56629 19.4446 7.39489C19.9351 8.22348 20.2566 9.13826 20.4091 10.1392H16.6506Z" fill="white"/>
<path d="M22.0085 24V3.63636H29.6449C31.2093 3.63636 32.5218 3.90814 33.5824 4.4517C34.6496 4.99526 35.455 5.75757 35.9986 6.73864C36.5488 7.71307 36.8239 8.84991 36.8239 10.1491C36.8239 11.455 36.5455 12.5885 35.9886 13.5497C35.4384 14.5043 34.6264 15.2434 33.5526 15.767C32.4787 16.2841 31.1596 16.5426 29.5952 16.5426H24.1562V13.4801H29.098C30.0128 13.4801 30.7618 13.3542 31.3452 13.1023C31.9285 12.8437 32.3594 12.4692 32.6378 11.9787C32.9228 11.4815 33.0653 10.8717 33.0653 10.1491C33.0653 9.42661 32.9228 8.81013 32.6378 8.29972C32.3527 7.78267 31.9186 7.39157 31.3352 7.12642C30.7519 6.85464 29.9995 6.71875 29.0781 6.71875H25.6974V24H22.0085ZM32.5284 14.7727L37.5696 24H33.4531L28.5014 14.7727H32.5284Z" fill="white"/>
</g>
<defs>
<clipPath id="clip0_40_106">
<rect width="40" height="28" fill="white"/>
</clipPath>
</defs>
</svg>
